<svg fill="#000000" width="256px" height="256px" viewBox="-6.08 -6.08 44.16 44.16" version="1.1" xmlns="http://www.w3.org/2000/svg" stroke="#000000" stroke-width="0.96" transform="rotate(0)"><g id="SVGRepo_bgCarrier" stroke-width="0" transform="translate(0,0), scale(1)"><path transform="translate(-6.08, -6.08), scale(2.76)" fill="#faa401" d="M9.166.33a2.25 2.25 0 00-2.332 0l-5.25 3.182A2.25 2.25 0 00.5 5.436v5.128a2.25 2.25 0 001.084 1.924l5.25 3.182a2.25 2.25 0 002.332 0l5.25-3.182a2.25 2.25 0 001.084-1.924V5.436a2.25 2.25 0 00-1.084-1.924L9.166.33z" strokewidth="0"></path></g><g id="SVGRepo_tracerCarrier" stroke-linecap="round" stroke-linejoin="round" stroke="#CCCCCC" stroke-width="0.32"></g><g id="SVGRepo_iconCarrier"> <title>list-check</title> <path d="M30 15.25h-17c-0.414 0-0.75 0.336-0.75 0.75s0.336 0.75 0.75 0.75v0h17c0.414 0 0.75-0.336 0.75-0.75s-0.336-0.75-0.75-0.75v0zM13 5.75h17c0.414 0 0.75-0.336 0.75-0.75s-0.336-0.75-0.75-0.75v0h-17c-0.414 0-0.75 0.336-0.75 0.75s0.336 0.75 0.75 0.75v0zM6 23.25h-2c-1.518 0.002-2.748 1.232-2.75 2.75v2c0.002 1.518 1.232 2.748 2.75 2.75h2c1.518-0.002 2.748-1.232 2.75-2.75v-2c-0.002-1.518-1.232-2.748-2.75-2.75h-0zM7.25 28c-0.001 0.69-0.56 1.249-1.25 1.25h-2c-0.69-0.001-1.249-0.56-1.25-1.25v-2c0.001-0.69 0.56-1.249 1.25-1.25h2c0.69 0.001 1.249 0.56 1.25 1.25v0zM30 26.25h-17c-0.414 0-0.75 0.336-0.75 0.75s0.336 0.75 0.75 0.75v0h17c0.414 0 0.75-0.336 0.75-0.75s-0.336-0.75-0.75-0.75v0zM9.446 12.215l-5.472 5.982-1.446-1.437c-0.135-0.13-0.318-0.21-0.521-0.21-0.414 0-0.75 0.336-0.75 0.75 0 0.204 0.082 0.39 0.214 0.525l-0-0 2 1.986 0.015 0.006 0.007 0.015c0.13 0.122 0.306 0.197 0.499 0.197 0.199 0 0.38-0.080 0.512-0.21l-0 0 0.027-0.011 0.005-0.011 0.017-0.012 6-6.559c0.122-0.133 0.196-0.311 0.196-0.506 0-0.414-0.336-0.75-0.75-0.75-0.219 0-0.416 0.094-0.553 0.244l-0.001 0.001zM9.446 1.215l-5.472 5.982-1.446-1.437c-0.135-0.13-0.318-0.21-0.521-0.21-0.414 0-0.75 0.336-0.75 0.75 0 0.204 0.082 0.39 0.214 0.525l-0-0 2 1.987 0.015 0.006 0.007 0.015c0.13 0.122 0.306 0.196 0.499 0.196 0.201 0 0.383-0.081 0.515-0.212l-0 0 0.024-0.010 0.004-0.010 0.017-0.012 6-6.559c0.119-0.132 0.192-0.308 0.192-0.501 0-0.414-0.336-0.75-0.75-0.75-0.217 0-0.412 0.092-0.549 0.239l-0 0z"></path> </g></svg>